<?xml version="1.0" encoding="utf-8"?>
<!-- Generator: Adobe Illustrator 16.0.3, SVG Export Plug-In . SVG Version: 6.00 Build 0)  -->
<!DOCTYPE svg PUBLIC "-//W3C//DTD SVG 1.1//EN" "http://www.w3.org/Graphics/SVG/1.1/DTD/svg11.dtd">
<svg version="1.1" id="Calque_1" xmlns="http://www.w3.org/2000/svg" xmlns:xlink="http://www.w3.org/1999/xlink" x="0px" y="0px"
	 width="960px" height="560px" viewBox="0 0 960 560" enable-background="new 0 0 960 560" xml:space="preserve">
<polygon points="265,559 188,559 188,458.135 265,428.224 "/>
<polygon points="394,559 317,559 317,415.092 354.164,371.469 394,413.633 "/>
<polygon points="518,559 440,559 440,436.248 462.405,450.988 518,398.312 "/>
<polyline points="638,320 638,559 561,559 561,377 "/>
<polyline points="774,236 774,561 696,561 696,291 "/>
<polyline points="182.874,439.677 346.23,361.244 458.394,415.885 781.422,208.722 798.564,230.224 811.533,161.94 732.195,166.318 
	747.89,181.712 540.78,313.211 457.25,361.105 346.258,305.364 166.61,387.435 "/>
<path d="M546.743,156.485c-0.989,11.083-8.459,19.525-16.683,18.854c-8.226-0.671-14.091-10.201-13.102-21.285
	c0.988-11.084,8.459-19.525,16.682-18.854C541.865,135.871,547.733,145.4,546.743,156.485z"/>
<polygon points="535.099,189.454 525.502,188.771 526.828,171.727 536.423,172.41 "/>
<polygon points="568.145,256.355 490.665,262.104 509.691,219.098 519.318,187.292 547.288,191.225 543.82,217.937 "/>
<path d="M566.434,298.376"/>
<line x1="530.66" y1="251.191" x2="548.292" y2="243.463"/>
<polygon points="561.017,299.519 551.313,305.735 548.292,269.325 530.753,249.576 553.077,241.35 562.575,264.925 "/>
<polygon points="532.423,316.608 522.719,322.825 518.07,284.706 502.159,260.684 524.483,252.458 528.849,278.724 "/>
<polygon points="558.99,224.345 526.989,200.787 533.555,192.679 556.106,209.966 568.358,195.223 577.172,201.71 "/>
</svg>
