<?xml version="1.0" encoding="utf-8"?>
<!-- Generator: Adobe Illustrator 16.0.3, SVG Export Plug-In . SVG Version: 6.00 Build 0)  -->
<!DOCTYPE svg PUBLIC "-//W3C//DTD SVG 1.1//EN" "http://www.w3.org/Graphics/SVG/1.1/DTD/svg11.dtd">
<svg version="1.1" id="Logo_Novalis_x5F_556U_x5F_vert"
	 xmlns="http://www.w3.org/2000/svg" xmlns:xlink="http://www.w3.org/1999/xlink" x="0px" y="0px" width="936px" height="720px"
	 viewBox="0 0 936 720" enable-background="new 0 0 936 720" xml:space="preserve">
<g>
	<path fill="#5C2946" d="M181.04,568.07c-3.465,3.171-6.515,8.304-6.534,16.406c-0.069,31.379,0.333,69.979,0.081,109.207h-32.26
		c-10.948-17.313-64.571-79.111-73.897-90.687c-7.37-9.135-7.357-9.462-7.333,6.113c0.037,21.968,0.12,39.029,0.037,64.417
		c-0.031,9.412,1.547,15.426,6.303,20.333l-27.621,0.074c5.195-4.478,6.742-9.058,6.598-19.978
		c-0.095-7.072-0.157-78.786,0.006-88.749c0.157-10.116-0.704-13.514-8.471-17.087c0,0.177,38.6-0.127,38.682-0.076
		c7.767,10.971,72.991,90.562,78.01,96.097c3.088,3.374,5.093,6.243,4.503-0.729c-0.019-0.275,0.013-46.123,0-78.936
		c0-6.994-3.007-13.537-7.899-16.432L181.04,568.07L181.04,568.07z"/>
	<path fill="#5C2946" d="M503.934,568.07c-3.521,2.114-3.898,3.398-5.384,4.958c-8.577,9.185-49.226,92.75-61.067,120.782h-21.89
		c-7.497-17.865-43.486-95.721-51.278-108.377c-6.376-10.392-6.603-11.047-13.389-17.262h45.958
		c-6.358,2.92-4.773,12.229-2.61,17.262c4.471,10.393,33.946,73.148,37.562,79.716c2.88,5.21,3.629,4.982,6.472-0.807
		c4.892-9.963,28.927-67.838,31.442-77.777c2.264-8.983,2.491-14.545-3.597-18.419L503.934,568.07L503.934,568.07z"/>
	<path fill="#5C2946" d="M730.475,693.709l-82.155-0.025c4.906-5.184,5.938-8.907,5.962-16.532
		c0.076-27.905-0.024-90.259-0.024-91.139c-0.025-11.198-1.383-14.847-8.05-17.968l44.223,0.076
		c-7.773,4.328-8.251,12.129-8.352,17.313c0,0.378-0.025,90.209-0.051,90.562c-0.202,11.096,1.182,11.247,12.729,10.366
		c14.941-1.133,36.801-6.442,40.271-22.019L730.475,693.709L730.475,693.709z"/>
	<path fill="#5C2946" d="M786.595,568.121c-4.705,3.272-6.415,6.568-6.238,12.707v100.501c0,5.511,1.332,8.934,6.087,12.404h-38.437
		c4.754-3.471,6.087-6.894,6.087-12.404V580.828c0.177-6.139-1.533-9.435-6.237-12.707H786.595L786.595,568.121z"/>
	<path fill="#5C2946" d="M894.605,592.855c-0.149-0.151,0.178-22.596,0.178-22.596c-16.224-3.774-26.588-5.134-42.713-5.185
		c-56.849-0.125-71.287,48.715-8.199,71.538c55.792,20.182,29.809,49.346,2.993,49.32c-19.771-0.025-41.682-16.28-44.298-28.812
		c0.378,11.173,0.051,29.39,0.051,29.39c19.395,7.448,24.853,10.091,43.719,10.091c59.087,0,78.858-61.297,20.752-78.684
		c-49.024-14.646-43.617-43.029-13.08-43.608C871.289,573.983,887.917,582.111,894.605,592.855L894.605,592.855z"/>
	<path fill="#5C2946" d="M635.668,693.784c-6.037-6.542-7.194-8.705-11.194-15.35c-15.418-25.641-44.347-97.505-49.907-110.263
		l-41.429-0.102c4.025,2.616,4.304,9.387,1.057,16.684c-11.269,25.364-38.638,77.3-47.492,91.795
		c-5.08,8.303-5.432,8.856-12.273,17.109h31.216c-5.609-2.742-5.03-7.725-1.586-17.262c2.768-7.599,20.175-37.493,20.175-37.493
		h29.684v-10.165c-7.949,0-16.956,0.025-21.761,0.025c-2.263,0-2.112-0.303-1.383-1.735c4.328-8.708,17.634-36.663,22.537-46.2
		c2.139,5.688,16.805,41.67,19.02,46.803c0.526,1.208-0.127,1.057-2.04,1.133l-16.575-0.025v10.165h22.362
		c0,0,24.122,46.702,27.569,54.78L635.668,693.784L635.668,693.784z"/>
	<path fill="#5C2946" d="M276.746,698.54c48.334,0,79.84-24.433,79.84-67.713c0-39.783-29.142-67.713-79.834-67.713
		c-50.127,0-79.839,28.484-79.839,67.713c0,42.123,32.134,67.713,79.953,67.713v-8.707c-25.645,0-49.076-14.015-49.076-59.006
		c0-43.834,21.57-59.358,47.215-59.358c25.639,0,51.296,14.946,51.296,59.358c0,43.859-23.897,59.006-49.542,59.006L276.746,698.54
		L276.746,698.54z"/>
</g>
<g>
	<path fill="#72A492" d="M431.728,262.97c-0.823-28.295-6.653-25.149-28.708-31.981c-34.442-10.669-45.919-50.049-22.142-94.35
		c18.721-34.875,14.023-7.435,13.941-1.635c-0.818,56.604,15.112,36.75,36.908,68.091c13.118,18.859,17.218,16.406,9.018-2.466
		c-15.734-36.197-56.516-55.585,9.835-118.958c18.049-17.224,13.13-13.11,13.13,3.284c0,9.977,8.2,70.557-0.83,91.065
		c-9.006,20.507,0.83,16.405,6.566,7.371c5.735-9.021,22.273-33.53,13.132-97.605c-1.651-11.487-5.749-17.225,5.733-7.386
		c11.471,9.839,99.899,62.831-5.733,115.661c-21.333,10.669-15.598,24.609,0,11.487c9.254-7.801,59.034-9.021,63.954-33.631
		c4.917-24.609,8.841-7.435,9.016-1.635c1.636,54.125-18.714,66.53-78.719,70.544c-12.302,0.818-13.597,8.203-13.999,21.325
		l158.321,0.416l0.075-78.282C621.229,99.072,552.169,30,466.982,30c-85.179,0-154.227,69.072-154.227,154.286v78.684h0.063H431.728
		z"/>
	<path fill="#72A492" d="M621.153,272.822H462.832c0,39.367,26.085,47.961,45.151,150.939c4.1,22.143,9.031,17.224,7.396-9.021
		c-1.647-26.258-2.403-77.163-23.796-108.289c-18.036-26.257-6.844-17.929,0.829-11.488c61.504,51.685,73.377,57.561,41.001,151.771
		c-9.029,26.244-14.79,20.055-31.165,0.817c-16.399-19.274-49.102-56.051-55.761-120.594c-2.459-23.792-9.025-25.842-10.257,0
		c-1.245,26.219-6.289,73.4-30.745,115.662c-4.516,7.813-6.32,30.309-13.124,0.816c-4.918-21.325-23.124-95.631,25.424-131.25
		c12.3-9.021,14.759-16.808,14.344-37.731H312.817l-0.032-6.166c-0.118,19.325-0.497,86.07,0,86.56
		c0,85.215,69.018,152.575,154.197,152.575c85.187,0,154.209-67.36,154.209-152.575c0-0.767-0.025-81.2-0.038-91.252V272.822z"/>
</g>
<rect x="36" y="28" fill="none" width="864.875" height="663.122"/>
</svg>
