<?xml version="1.0" encoding="iso-8859-1"?>
<!-- Generator: Adobe Illustrator 18.0.0, SVG Export Plug-In . SVG Version: 6.00 Build 0)  -->
<!DOCTYPE svg PUBLIC "-//W3C//DTD SVG 1.1//EN" "http://www.w3.org/Graphics/SVG/1.1/DTD/svg11.dtd">
<svg version="1.1" id="Capa_1" xmlns="http://www.w3.org/2000/svg" xmlns:xlink="http://www.w3.org/1999/xlink" x="0px" y="0px"
	 viewBox="0 0 334.178 334.178" style="enable-background:new 0 0 334.178 334.178;" xml:space="preserve">
<g>
	<path d="M282.085,121.816c0-8.542-3.59-16.105-9.807-22.673c5.047-5.15,8.486-10.929,9.81-17.341l-0.004-28.207
		C282.085,18.781,222.835,0,167.087,0C111.339,0,52.089,18.781,52.089,53.602l0.026,27.611l0.063,0.59
		c1.322,6.39,4.738,12.151,9.746,17.284c-6.24,6.585-9.836,14.171-9.836,22.73l0.026,27.616l0.063,0.586
		c1.322,6.392,4.738,12.151,9.746,17.287c-6.24,6.585-9.836,14.167-9.836,22.73l0.026,27.612l0.063,0.591
		c1.322,6.392,4.738,12.151,9.746,17.286c-6.24,6.582-9.836,14.167-9.836,22.73l0.026,27.613l0.063,0.586
		c6.468,31.332,62.704,47.722,114.908,47.722c52.204,0,108.535-16.391,115.002-47.722l-0.004-28.2c0-8.542-3.59-16.105-9.807-22.676
		c5.047-5.15,8.486-10.925,9.81-17.34l-0.004-28.205c0-8.541-3.59-16.105-9.807-22.675c5.047-5.147,8.486-10.926,9.81-17.341
		L282.085,121.816z M256.748,190.035c0,9.961-34.046,28.264-89.661,28.264c-55.616,0-89.661-18.303-89.661-28.264
		c0-2.407,2.02-5.3,5.816-8.303c22.459,10.573,53.811,16.014,83.845,16.014c30.015,0,61.386-5.434,83.868-15.997
		C254.732,184.745,256.748,187.633,256.748,190.035z M256.748,121.816c0,9.964-34.046,28.262-89.661,28.262
		c-55.616,0-89.661-18.298-89.661-28.262c0-2.409,2.02-5.301,5.816-8.304c22.459,10.576,53.811,16.013,83.845,16.013
		c30.015,0,61.386-5.43,83.868-15.993C254.732,116.528,256.748,119.413,256.748,121.816z M167.087,25.337
		c55.615,0,89.661,18.298,89.661,28.259c0,9.968-34.046,28.263-89.661,28.263c-55.616,0-89.661-18.295-89.661-28.263
		C77.426,43.635,111.471,25.337,167.087,25.337z M167.087,286.515c-55.616,0-89.661-18.298-89.661-28.259
		c0-2.409,2.02-5.301,5.816-8.307c22.459,10.576,53.811,16.013,83.845,16.013c30.015,0,61.386-5.433,83.868-15.993
		c3.777,2.996,5.793,5.884,5.793,8.287C256.748,268.217,222.702,286.515,167.087,286.515z"/>
</g>
<g>
</g>
<g>
</g>
<g>
</g>
<g>
</g>
<g>
</g>
<g>
</g>
<g>
</g>
<g>
</g>
<g>
</g>
<g>
</g>
<g>
</g>
<g>
</g>
<g>
</g>
<g>
</g>
<g>
</g>
</svg>
